<svg xmlns="http://www.w3.org/2000/svg" viewBox="0 0 542.66 140.83"><g id="Layer_2" data-name="Layer 2"><g id="Layer_1-2" data-name="Layer 1"><path d="M0,64.39H8v14.4H22.77V64.39h8v36.39h-8V86.17H8v14.61H0Z"/><path d="M51,64.13h7.38l15.6,36.65H65.56l-3.33-8.16H46.84l-3.33,8.16H35.35Zm8.42,21.42-4.84-11.8L49.7,85.55Z"/><path d="M78.5,64.39H93.37c8.68,0,13.93,5.15,13.93,12.58v.1c0,8.43-6.55,12.79-14.71,12.79H86.5v10.92h-8ZM92.85,82.74c4,0,6.34-2.39,6.34-5.51v-.1c0-3.59-2.5-5.51-6.5-5.51H86.5V82.74Z"/><path d="M112.18,64.39h14.87C135.73,64.39,141,69.54,141,77v.1c0,8.43-6.56,12.79-14.72,12.79h-6.08v10.92h-8Zm14.35,18.35c4,0,6.34-2.39,6.34-5.51v-.1c0-3.59-2.49-5.51-6.49-5.51h-6.19V82.74Z"/><path d="M155.59,86.43l-14-22H151L159.65,79l8.83-14.61h9.1l-14,21.89v14.5h-8Z"/><path d="M325.47,82.69v-.1a18.5,18.5,0,0,1,19-18.83c6.87,0,11,2.29,14.35,5.62l-5.09,5.88c-2.81-2.55-5.67-4.11-9.31-4.11-6.13,0-10.55,5.09-10.55,11.33v.11c0,6.23,4.31,11.43,10.55,11.43,4.16,0,6.71-1.66,9.57-4.26l5.09,5.15a18.6,18.6,0,0,1-14.92,6.5A18.37,18.37,0,0,1,325.47,82.69Z"/><path d="M364.4,64.39h8v14.4h14.77V64.39h8v36.39h-8V86.17H372.41v14.61h-8Z"/><path d="M401.26,82.69v-.1c0-10.35,8.16-18.83,19.39-18.83s19.29,8.38,19.29,18.72v.11c0,10.34-8.16,18.82-19.39,18.82S401.26,93,401.26,82.69Zm30.31,0v-.1c0-6.24-4.57-11.44-11-11.44s-10.92,5.09-10.92,11.33v.11c0,6.23,4.58,11.43,11,11.43S431.57,88.93,431.57,82.69Z"/><path d="M446,64.39h16.64c4.62,0,8.21,1.3,10.6,3.69a11.42,11.42,0,0,1,3.12,8.32v.1a11.31,11.31,0,0,1-7.8,11.29l8.89,13h-9.35l-7.8-11.64H454v11.64h-8Zm16.12,17.68c3.89,0,6.13-2.08,6.13-5.15v-.11c0-3.43-2.39-5.19-6.29-5.19h-8V82.07Z"/><path d="M482.56,64.39H510v7.12H490.52v7.38h17.15V86H490.52v7.64h19.76v7.12H482.56Z"/><path d="M513.86,95.48l4.73-5.67c3.27,2.71,6.71,4.42,10.86,4.42,3.28,0,5.26-1.3,5.26-3.43v-.1c0-2-1.25-3.07-7.34-4.63-7.33-1.87-12.06-3.9-12.06-11.13v-.1c0-6.6,5.31-11,12.74-11a21,21,0,0,1,13.52,4.63l-4.16,6c-3.22-2.24-6.4-3.59-9.46-3.59s-4.68,1.4-4.68,3.17v.1c0,2.4,1.56,3.18,7.85,4.79,7.38,1.92,11.54,4.57,11.54,10.92V90c0,7.23-5.51,11.28-13.36,11.28A23.14,23.14,0,0,1,513.86,95.48Z"/><path d="M244.74,56.16a30.15,30.15,0,0,1,3.65-.77C244.22,42.69,235.55,21.17,220.12,2a5.47,5.47,0,0,0-6.5-1.55,5.56,5.56,0,0,0-1.17.73,5.45,5.45,0,0,0-.82,7.66C226,26.64,234.15,47.12,238.05,59A27.75,27.75,0,0,1,244.74,56.16Z"/><path d="M251.89,64.73c10.46,0,17.13,10.55,19.88,20.43.87,3.11,1.65,6,2.33,8.56,3.27,12.2,5.36,20,11.08,26.54L240,132.87c1.22-7.49,1.11-18.75-3.39-34.87-3-10.73-4.51-24.74,5.3-30.53a19.83,19.83,0,0,1,4.78-2,21.74,21.74,0,0,1,2.64-.56,17.26,17.26,0,0,1,2.56-.19m0-5.45a22.71,22.71,0,0,0-3.35.25,26.12,26.12,0,0,0-3.31.7,25,25,0,0,0-6.09,2.55c-11.26,6.64-12.18,20.94-7.78,36.68,7.39,26.47,2.21,38.3.39,41.37l64.73-18.07c-12.61-8.35-13-16.05-19.46-39.07-3.48-12.48-12-24.41-25.13-24.41Z"/><path d="M272.38,126.76s-2.4-8-.76-15.23c0,0,5.24,8.31,9.4,10.83Z"/><path d="M254.91,131.34a33.27,33.27,0,0,0-7.07-12.55s-.32,8.9-2.6,13.2Z"/><polygon points="256.01 129.59 258.85 109.74 270.76 126.16 256.01 129.59"/><circle cx="301.19" cy="73.59" r="4.53"/><circle cx="219.13" cy="64.05" r="2.39"/><circle cx="211.2" cy="114.74" r="1.14"/><circle cx="294.04" cy="93.15" r="3.59"/><circle cx="197.71" cy="88.36" r="4.54"/><path d="M216.5,97.69a.37.37,0,0,1-.37-.3l-.18-.8a3.16,3.16,0,0,0-2.15-2.15.37.37,0,0,1-.3-.37.37.37,0,0,1,.3-.37A3.16,3.16,0,0,0,216,91.55l.18-.8a.39.39,0,0,1,.74,0l.18.8a2.86,2.86,0,0,0,2.15,2.15.37.37,0,0,1,.3.37.37.37,0,0,1-.3.37,2.85,2.85,0,0,0-2.15,2.15l-.18.8A.37.37,0,0,1,216.5,97.69Z"/><path d="M282.74,64.5a.4.4,0,0,1-.38-.3l-.18-.8A3.13,3.13,0,0,0,280,61.25a.37.37,0,0,1-.3-.37.39.39,0,0,1,.3-.38,3.11,3.11,0,0,0,2.14-2.15l.18-.8a.4.4,0,0,1,.75,0l.18.8a2.85,2.85,0,0,0,2.15,2.15.4.4,0,0,1,.3.38.38.38,0,0,1-.3.37,2.85,2.85,0,0,0-2.15,2.15l-.18.8A.38.38,0,0,1,282.74,64.5Z"/></g></g></svg>